<svg width="20" height="28" viewBox="0 0 20 28" fill="none" xmlns="http://www.w3.org/2000/svg">
<path d="M15.2388 21.1839C15.2388 21.1839 13.4403 25.2556 8.82623 25.2556C4.21217 25.2556 2.41367 21.1843 2.41367 21.1839L0 22.47C0 22.47 2.47421 28 8.82623 28C15.1782 28 17.6525 22.47 17.6525 22.47L15.2388 21.1839Z" fill="#242736"/>
<path d="M11.2679 16.0186H5.04624V18.4086H11.2679V16.0186Z" fill="#242736"/>
<path d="M7.63873 6.68851H5.04624V15.3219H7.63873V6.68851Z" fill="#242736"/>
<path d="M15.4418 0C12.9425 0 10.8836 1.52041 10.8836 4.70383C10.8836 7.32575 12.2938 9.46424 15.4418 9.46424C18.9345 9.46424 20 6.91947 20 4.70383C20 1.80233 18.2532 0 15.4418 0ZM15.4418 7.14528C14.1188 7.14528 13.4761 6.34674 13.4761 4.70383C13.4761 3.06093 14.1374 2.34748 15.4418 2.34748C16.6559 2.34748 17.4219 3.0067 17.4219 4.70383C17.4219 6.34674 16.7742 7.14528 15.4418 7.14528Z" fill="#242736"/>
</svg>
